# xmcd
#
# Track frame offsets: 
#        150
#        14740
#        27313
#        42267
#        54817
#        67081
#        79934
#        90047
#        102960
#        115111
#        129865
#        141647
#        154792
#        166593
#        177894
#        192242
#        206072
#        217882
#        232227
#        242840
#
# Disc length: 3383 seconds
#
# Revision: 1
# Processed by: cddbd v1.5.2PL0 Copyright (c) Steve Scherf et al.
# Submitted via: ExactAudioCopy v0.95b4
#
DISCID=0f0d3514
DTITLE=Nat King Cole - Unforgettable
DYEAR=1900
DGENRE=Jazz
TTITLE0=Unforgettable
TTITLE1=Besame Mucho
TTITLE2=Mona Lisa
TTITLE3=Route 66 (Get your Kicks On)
TTITLE4=My Baby Just Cares For ME
TTITLE5=For Sentimental Reasons (I Love You)
TTITLE6=Baby Wont You Please Come Home
TTITLE7=Dream A Little Dream Of Me
TTITLE8=How High The Moon
TTITLE9=I've Got The World On A String
TTITLE10=Is You Is, Or Is You Aint (My Baby)
TTITLE11=It's Only a Paper Moon
TTITLE12=Nature Boy
TTITLE13=On The Sunny Side Of The Street
TTITLE14=There, I've Said It Again
TTITLE15=What'll I Do
TTITLE16=Baby
TTITLE17=I'll String Along With You
TTITLE18=Ke Mo Ky Mo (The Magic Song)
TTITLE19=Little Girl
EXTD=
EXTT0=
EXTT1=
EXTT2=
EXTT3=
EXTT4=
EXTT5=
EXTT6=
EXTT7=
EXTT8=
EXTT9=
EXTT10=
EXTT11=
EXTT12=
EXTT13=
EXTT14=
EXTT15=
EXTT16=
EXTT17=
EXTT18=
EXTT19=
PLAYORDER=
